<mxfile host="app.diagrams.net" modified="2022-12-21T14:18:54.819Z" agent="5.0 (Windows NT 10.0; Win64; x64) AppleWebKit/537.36 (KHTML, like Gecko) Chrome/108.0.0.0 Safari/537.36" version="20.7.4" etag="wGDPgsmDWn7oM4cJnJTd" type="github">
  <diagram id="sh0ya5wsLuQhjaFhRjpT" name="Страница 1">
    <mxGraphModel dx="1687" dy="899" grid="1" gridSize="10" guides="1" tooltips="1" connect="1" arrows="1" fold="1" page="1" pageScale="1" pageWidth="1169" pageHeight="827" math="0" shadow="0">
      <root>
        <mxCell id="0" />
        <mxCell id="1" parent="0" />
        <mxCell id="X8ZygtMyOsMqzjzldrva-5" style="edgeStyle=orthogonalEdgeStyle;rounded=0;orthogonalLoop=1;jettySize=auto;html=1;entryX=0;entryY=0.5;entryDx=0;entryDy=0;strokeWidth=2;endArrow=none;endFill=0;" edge="1" parent="1" source="X8ZygtMyOsMqzjzldrva-6" target="X8ZygtMyOsMqzjzldrva-10">
          <mxGeometry relative="1" as="geometry" />
        </mxCell>
        <mxCell id="X8ZygtMyOsMqzjzldrva-6" value="" style="rounded=0;whiteSpace=wrap;html=1;" vertex="1" parent="1">
          <mxGeometry x="280" y="40" width="160" height="80" as="geometry" />
        </mxCell>
        <mxCell id="X8ZygtMyOsMqzjzldrva-7" value="Керований генератор високої частоти" style="text;html=1;strokeColor=none;fillColor=none;align=center;verticalAlign=middle;whiteSpace=wrap;rounded=0;" vertex="1" parent="1">
          <mxGeometry x="300" y="50" width="120" height="60" as="geometry" />
        </mxCell>
        <mxCell id="X8ZygtMyOsMqzjzldrva-9" style="edgeStyle=orthogonalEdgeStyle;rounded=0;orthogonalLoop=1;jettySize=auto;html=1;entryX=0.5;entryY=0;entryDx=0;entryDy=0;strokeWidth=2;endArrow=none;endFill=0;" edge="1" parent="1" source="X8ZygtMyOsMqzjzldrva-10" target="X8ZygtMyOsMqzjzldrva-22">
          <mxGeometry relative="1" as="geometry" />
        </mxCell>
        <mxCell id="X8ZygtMyOsMqzjzldrva-10" value="" style="rounded=0;whiteSpace=wrap;html=1;" vertex="1" parent="1">
          <mxGeometry x="520" y="40" width="160" height="80" as="geometry" />
        </mxCell>
        <mxCell id="X8ZygtMyOsMqzjzldrva-11" value="Антенний преремикач" style="text;html=1;strokeColor=none;fillColor=none;align=center;verticalAlign=middle;whiteSpace=wrap;rounded=0;" vertex="1" parent="1">
          <mxGeometry x="540" y="50" width="120" height="60" as="geometry" />
        </mxCell>
        <mxCell id="X8ZygtMyOsMqzjzldrva-12" style="edgeStyle=orthogonalEdgeStyle;rounded=0;orthogonalLoop=1;jettySize=auto;html=1;exitX=1;exitY=0.5;exitDx=0;exitDy=0;entryX=1;entryY=0.5;entryDx=0;entryDy=0;entryPerimeter=0;strokeWidth=2;endArrow=none;endFill=0;" edge="1" parent="1" target="X8ZygtMyOsMqzjzldrva-16">
          <mxGeometry relative="1" as="geometry">
            <mxPoint x="680" y="80" as="sourcePoint" />
          </mxGeometry>
        </mxCell>
        <mxCell id="X8ZygtMyOsMqzjzldrva-16" value="" style="shape=requiredInterface;html=1;verticalLabelPosition=bottom;sketch=0;direction=west;" vertex="1" parent="1">
          <mxGeometry x="720" y="40" width="30" height="80" as="geometry" />
        </mxCell>
        <mxCell id="X8ZygtMyOsMqzjzldrva-17" value="" style="line;strokeWidth=2;html=1;" vertex="1" parent="1">
          <mxGeometry x="720" y="75" width="40" height="10" as="geometry" />
        </mxCell>
        <mxCell id="X8ZygtMyOsMqzjzldrva-18" value="" style="line;strokeWidth=2;html=1;direction=south;" vertex="1" parent="1">
          <mxGeometry x="750" y="60" width="20" height="40" as="geometry" />
        </mxCell>
        <mxCell id="X8ZygtMyOsMqzjzldrva-19" value="" style="rounded=0;whiteSpace=wrap;html=1;" vertex="1" parent="1">
          <mxGeometry x="280" y="200" width="160" height="80" as="geometry" />
        </mxCell>
        <mxCell id="X8ZygtMyOsMqzjzldrva-20" value="Гетеродиск" style="text;html=1;strokeColor=none;fillColor=none;align=center;verticalAlign=middle;whiteSpace=wrap;rounded=0;" vertex="1" parent="1">
          <mxGeometry x="300" y="210" width="120" height="60" as="geometry" />
        </mxCell>
        <mxCell id="X8ZygtMyOsMqzjzldrva-21" style="edgeStyle=orthogonalEdgeStyle;rounded=0;orthogonalLoop=1;jettySize=auto;html=1;entryX=1;entryY=0.5;entryDx=0;entryDy=0;strokeWidth=2;endArrow=none;endFill=0;" edge="1" parent="1" source="X8ZygtMyOsMqzjzldrva-22" target="X8ZygtMyOsMqzjzldrva-19">
          <mxGeometry relative="1" as="geometry" />
        </mxCell>
        <mxCell id="X8ZygtMyOsMqzjzldrva-22" value="" style="rounded=0;whiteSpace=wrap;html=1;" vertex="1" parent="1">
          <mxGeometry x="520" y="200" width="160" height="80" as="geometry" />
        </mxCell>
        <mxCell id="X8ZygtMyOsMqzjzldrva-23" value="Перетворювач частоти" style="text;html=1;strokeColor=none;fillColor=none;align=center;verticalAlign=middle;whiteSpace=wrap;rounded=0;" vertex="1" parent="1">
          <mxGeometry x="540" y="210" width="120" height="60" as="geometry" />
        </mxCell>
        <mxCell id="X8ZygtMyOsMqzjzldrva-35" style="edgeStyle=orthogonalEdgeStyle;rounded=0;orthogonalLoop=1;jettySize=auto;html=1;entryX=0;entryY=0.5;entryDx=0;entryDy=0;strokeWidth=2;fontSize=16;endArrow=none;endFill=0;exitX=1;exitY=0.313;exitDx=0;exitDy=0;exitPerimeter=0;" edge="1" parent="1" source="X8ZygtMyOsMqzjzldrva-37" target="X8ZygtMyOsMqzjzldrva-42">
          <mxGeometry relative="1" as="geometry">
            <mxPoint x="1010" y="580" as="sourcePoint" />
          </mxGeometry>
        </mxCell>
        <mxCell id="X8ZygtMyOsMqzjzldrva-36" style="edgeStyle=orthogonalEdgeStyle;rounded=0;orthogonalLoop=1;jettySize=auto;html=1;exitX=0;exitY=0.75;exitDx=0;exitDy=0;entryX=0.5;entryY=1;entryDx=0;entryDy=0;strokeWidth=2;fontSize=16;endArrow=none;endFill=0;" edge="1" parent="1" source="X8ZygtMyOsMqzjzldrva-37" target="X8ZygtMyOsMqzjzldrva-6">
          <mxGeometry relative="1" as="geometry">
            <Array as="points">
              <mxPoint x="120" y="720" />
              <mxPoint x="120" y="160" />
              <mxPoint x="360" y="160" />
            </Array>
          </mxGeometry>
        </mxCell>
        <mxCell id="X8ZygtMyOsMqzjzldrva-37" value="" style="rounded=0;whiteSpace=wrap;html=1;" vertex="1" parent="1">
          <mxGeometry x="840" y="480" width="160" height="320" as="geometry" />
        </mxCell>
        <mxCell id="X8ZygtMyOsMqzjzldrva-38" value="Процессор керування і обробки" style="text;html=1;strokeColor=none;fillColor=none;align=center;verticalAlign=middle;whiteSpace=wrap;rounded=0;" vertex="1" parent="1">
          <mxGeometry x="860" y="550" width="120" height="180" as="geometry" />
        </mxCell>
        <mxCell id="X8ZygtMyOsMqzjzldrva-42" value="" style="rounded=0;whiteSpace=wrap;html=1;" vertex="1" parent="1">
          <mxGeometry x="1080" y="540" width="80" height="80" as="geometry" />
        </mxCell>
        <mxCell id="X8ZygtMyOsMqzjzldrva-43" value="Індикатор" style="text;html=1;strokeColor=none;fillColor=none;align=center;verticalAlign=middle;whiteSpace=wrap;rounded=0;" vertex="1" parent="1">
          <mxGeometry x="1090" y="550" width="60" height="60" as="geometry" />
        </mxCell>
        <mxCell id="X8ZygtMyOsMqzjzldrva-44" style="edgeStyle=orthogonalEdgeStyle;rounded=0;orthogonalLoop=1;jettySize=auto;html=1;exitX=1;exitY=0.25;exitDx=0;exitDy=0;strokeWidth=2;fontSize=16;endArrow=none;endFill=0;entryX=0;entryY=0.25;entryDx=0;entryDy=0;" edge="1" parent="1" source="X8ZygtMyOsMqzjzldrva-47" target="X8ZygtMyOsMqzjzldrva-37">
          <mxGeometry relative="1" as="geometry">
            <mxPoint x="830" y="560" as="targetPoint" />
          </mxGeometry>
        </mxCell>
        <mxCell id="X8ZygtMyOsMqzjzldrva-45" style="edgeStyle=orthogonalEdgeStyle;rounded=0;orthogonalLoop=1;jettySize=auto;html=1;exitX=1;exitY=0.5;exitDx=0;exitDy=0;strokeWidth=2;fontSize=16;endArrow=none;endFill=0;entryX=0;entryY=0.313;entryDx=0;entryDy=0;entryPerimeter=0;" edge="1" parent="1" source="X8ZygtMyOsMqzjzldrva-47" target="X8ZygtMyOsMqzjzldrva-37">
          <mxGeometry relative="1" as="geometry">
            <mxPoint x="830" y="580" as="targetPoint" />
          </mxGeometry>
        </mxCell>
        <mxCell id="X8ZygtMyOsMqzjzldrva-46" style="edgeStyle=orthogonalEdgeStyle;rounded=0;orthogonalLoop=1;jettySize=auto;html=1;exitX=0;exitY=0.25;exitDx=0;exitDy=0;entryX=1;entryY=0.5;entryDx=0;entryDy=0;strokeWidth=2;fontSize=16;endArrow=none;endFill=0;" edge="1" parent="1" source="X8ZygtMyOsMqzjzldrva-47" target="X8ZygtMyOsMqzjzldrva-55">
          <mxGeometry relative="1" as="geometry" />
        </mxCell>
        <mxCell id="X8ZygtMyOsMqzjzldrva-47" value="" style="rounded=0;whiteSpace=wrap;html=1;" vertex="1" parent="1">
          <mxGeometry x="600" y="540" width="160" height="80" as="geometry" />
        </mxCell>
        <mxCell id="X8ZygtMyOsMqzjzldrva-48" value="АЦП" style="text;html=1;strokeColor=none;fillColor=none;align=center;verticalAlign=middle;whiteSpace=wrap;rounded=0;" vertex="1" parent="1">
          <mxGeometry x="620" y="550" width="120" height="60" as="geometry" />
        </mxCell>
        <mxCell id="X8ZygtMyOsMqzjzldrva-49" style="edgeStyle=orthogonalEdgeStyle;rounded=0;orthogonalLoop=1;jettySize=auto;html=1;exitX=1;exitY=0.5;exitDx=0;exitDy=0;strokeWidth=2;fontSize=16;endArrow=none;endFill=0;entryX=0;entryY=0.406;entryDx=0;entryDy=0;entryPerimeter=0;" edge="1" parent="1" target="X8ZygtMyOsMqzjzldrva-37">
          <mxGeometry relative="1" as="geometry">
            <mxPoint x="760" y="609.6700000000001" as="sourcePoint" />
            <mxPoint x="830" y="610" as="targetPoint" />
          </mxGeometry>
        </mxCell>
        <mxCell id="X8ZygtMyOsMqzjzldrva-50" value="&lt;b&gt;&lt;font style=&quot;font-size: 16px;&quot;&gt;. &lt;br&gt;.&lt;/font&gt;&lt;/b&gt;" style="text;html=1;strokeColor=none;fillColor=none;align=center;verticalAlign=middle;whiteSpace=wrap;rounded=0;" vertex="1" parent="1">
          <mxGeometry x="780" y="580" width="40" height="20" as="geometry" />
        </mxCell>
        <mxCell id="X8ZygtMyOsMqzjzldrva-51" style="edgeStyle=orthogonalEdgeStyle;rounded=0;orthogonalLoop=1;jettySize=auto;html=1;strokeWidth=2;fontSize=16;endArrow=none;endFill=0;entryX=0;entryY=0.5;entryDx=0;entryDy=0;" edge="1" parent="1" source="X8ZygtMyOsMqzjzldrva-52" target="X8ZygtMyOsMqzjzldrva-37">
          <mxGeometry relative="1" as="geometry">
            <mxPoint x="830" y="640" as="targetPoint" />
          </mxGeometry>
        </mxCell>
        <mxCell id="X8ZygtMyOsMqzjzldrva-52" value="" style="rounded=0;whiteSpace=wrap;html=1;" vertex="1" parent="1">
          <mxGeometry x="480" y="600" width="80" height="80" as="geometry" />
        </mxCell>
        <mxCell id="X8ZygtMyOsMqzjzldrva-53" value="Гіроскоп" style="text;html=1;strokeColor=none;fillColor=none;align=center;verticalAlign=middle;whiteSpace=wrap;rounded=0;" vertex="1" parent="1">
          <mxGeometry x="490" y="610" width="60" height="60" as="geometry" />
        </mxCell>
        <mxCell id="X8ZygtMyOsMqzjzldrva-54" style="edgeStyle=orthogonalEdgeStyle;rounded=0;orthogonalLoop=1;jettySize=auto;html=1;entryX=0;entryY=0.5;entryDx=0;entryDy=0;strokeWidth=2;fontSize=16;endArrow=none;endFill=0;" edge="1" parent="1" source="X8ZygtMyOsMqzjzldrva-55" target="X8ZygtMyOsMqzjzldrva-59">
          <mxGeometry relative="1" as="geometry" />
        </mxCell>
        <mxCell id="X8ZygtMyOsMqzjzldrva-55" value="" style="rounded=0;whiteSpace=wrap;html=1;" vertex="1" parent="1">
          <mxGeometry x="320" y="520" width="80" height="80" as="geometry" />
        </mxCell>
        <mxCell id="X8ZygtMyOsMqzjzldrva-56" style="edgeStyle=orthogonalEdgeStyle;rounded=0;orthogonalLoop=1;jettySize=auto;html=1;entryX=0.5;entryY=1;entryDx=0;entryDy=0;strokeWidth=2;fontSize=16;endArrow=none;endFill=0;" edge="1" parent="1" source="X8ZygtMyOsMqzjzldrva-57" target="X8ZygtMyOsMqzjzldrva-67">
          <mxGeometry relative="1" as="geometry" />
        </mxCell>
        <mxCell id="X8ZygtMyOsMqzjzldrva-57" value="Блок вибору режиму" style="text;html=1;strokeColor=none;fillColor=none;align=center;verticalAlign=middle;whiteSpace=wrap;rounded=0;" vertex="1" parent="1">
          <mxGeometry x="330" y="530" width="60" height="60" as="geometry" />
        </mxCell>
        <mxCell id="X8ZygtMyOsMqzjzldrva-58" style="edgeStyle=orthogonalEdgeStyle;rounded=0;orthogonalLoop=1;jettySize=auto;html=1;entryX=0;entryY=0.5;entryDx=0;entryDy=0;strokeWidth=2;fontSize=16;endArrow=none;endFill=0;" edge="1" parent="1" source="X8ZygtMyOsMqzjzldrva-59" target="X8ZygtMyOsMqzjzldrva-61">
          <mxGeometry relative="1" as="geometry" />
        </mxCell>
        <mxCell id="X8ZygtMyOsMqzjzldrva-59" value="" style="rounded=0;whiteSpace=wrap;html=1;" vertex="1" parent="1">
          <mxGeometry x="400" y="360" width="80" height="80" as="geometry" />
        </mxCell>
        <mxCell id="X8ZygtMyOsMqzjzldrva-60" value="Лінія затримки на період" style="text;html=1;strokeColor=none;fillColor=none;align=center;verticalAlign=middle;whiteSpace=wrap;rounded=0;" vertex="1" parent="1">
          <mxGeometry x="410" y="370" width="60" height="60" as="geometry" />
        </mxCell>
        <mxCell id="X8ZygtMyOsMqzjzldrva-61" value="" style="rounded=0;whiteSpace=wrap;html=1;" vertex="1" parent="1">
          <mxGeometry x="560" y="360" width="80" height="80" as="geometry" />
        </mxCell>
        <mxCell id="X8ZygtMyOsMqzjzldrva-62" value="Віднімаючий пристрій" style="text;html=1;strokeColor=none;fillColor=none;align=center;verticalAlign=middle;whiteSpace=wrap;rounded=0;" vertex="1" parent="1">
          <mxGeometry x="570" y="370" width="60" height="60" as="geometry" />
        </mxCell>
        <mxCell id="X8ZygtMyOsMqzjzldrva-63" style="edgeStyle=orthogonalEdgeStyle;rounded=0;orthogonalLoop=1;jettySize=auto;html=1;entryX=1;entryY=0.5;entryDx=0;entryDy=0;strokeWidth=2;fontSize=16;endArrow=none;endFill=0;" edge="1" parent="1">
          <mxGeometry relative="1" as="geometry">
            <mxPoint x="600" y="480" as="sourcePoint" />
            <mxPoint x="360" y="480" as="targetPoint" />
          </mxGeometry>
        </mxCell>
        <mxCell id="X8ZygtMyOsMqzjzldrva-64" style="edgeStyle=orthogonalEdgeStyle;rounded=0;orthogonalLoop=1;jettySize=auto;html=1;strokeWidth=2;fontSize=16;endArrow=none;endFill=0;" edge="1" parent="1">
          <mxGeometry relative="1" as="geometry">
            <mxPoint x="600" y="440" as="sourcePoint" />
            <mxPoint x="600" y="480" as="targetPoint" />
          </mxGeometry>
        </mxCell>
        <mxCell id="X8ZygtMyOsMqzjzldrva-65" style="edgeStyle=orthogonalEdgeStyle;rounded=0;orthogonalLoop=1;jettySize=auto;html=1;entryX=1;entryY=0.5;entryDx=0;entryDy=0;strokeWidth=2;fontSize=16;endArrow=none;endFill=0;" edge="1" parent="1">
          <mxGeometry relative="1" as="geometry">
            <mxPoint x="680" y="400" as="sourcePoint" />
            <mxPoint x="640" y="400" as="targetPoint" />
          </mxGeometry>
        </mxCell>
        <mxCell id="X8ZygtMyOsMqzjzldrva-66" style="edgeStyle=orthogonalEdgeStyle;rounded=0;orthogonalLoop=1;jettySize=auto;html=1;exitX=0.5;exitY=0;exitDx=0;exitDy=0;entryX=1;entryY=0.5;entryDx=0;entryDy=0;strokeWidth=2;fontSize=16;endArrow=none;endFill=0;" edge="1" parent="1" source="X8ZygtMyOsMqzjzldrva-47">
          <mxGeometry relative="1" as="geometry">
            <mxPoint x="880" y="400" as="sourcePoint" />
            <mxPoint x="680" y="400" as="targetPoint" />
          </mxGeometry>
        </mxCell>
        <mxCell id="X8ZygtMyOsMqzjzldrva-67" value="" style="rounded=0;whiteSpace=wrap;html=1;" vertex="1" parent="1">
          <mxGeometry x="160" y="350" width="160" height="80" as="geometry" />
        </mxCell>
        <mxCell id="X8ZygtMyOsMqzjzldrva-68" value="Посилювач низької частоти" style="text;html=1;strokeColor=none;fillColor=none;align=center;verticalAlign=middle;whiteSpace=wrap;rounded=0;" vertex="1" parent="1">
          <mxGeometry x="180" y="360" width="120" height="60" as="geometry" />
        </mxCell>
        <mxCell id="X8ZygtMyOsMqzjzldrva-69" style="edgeStyle=orthogonalEdgeStyle;rounded=0;orthogonalLoop=1;jettySize=auto;html=1;exitX=0.5;exitY=0;exitDx=0;exitDy=0;strokeWidth=2;fontSize=16;endArrow=none;endFill=0;" edge="1" parent="1">
          <mxGeometry relative="1" as="geometry">
            <mxPoint x="239.57999999999993" y="350" as="sourcePoint" />
            <mxPoint x="240" y="320" as="targetPoint" />
          </mxGeometry>
        </mxCell>
        <mxCell id="X8ZygtMyOsMqzjzldrva-70" style="edgeStyle=orthogonalEdgeStyle;rounded=0;orthogonalLoop=1;jettySize=auto;html=1;entryX=0.5;entryY=1;entryDx=0;entryDy=0;strokeWidth=2;fontSize=16;endArrow=none;endFill=0;" edge="1" parent="1" target="X8ZygtMyOsMqzjzldrva-22">
          <mxGeometry relative="1" as="geometry">
            <mxPoint x="240" y="320" as="sourcePoint" />
            <mxPoint x="340" y="300" as="targetPoint" />
          </mxGeometry>
        </mxCell>
      </root>
    </mxGraphModel>
  </diagram>
</mxfile>
